<svg width="24" height="24" viewBox="0 0 24 24" fill="none" xmlns="http://www.w3.org/2000/svg">
<g clip-path="url(#clip0_5062_1633)">
<path fill-rule="evenodd" clip-rule="evenodd" d="M18.1207 5.28625C16.7488 3.76935 14.1999 2.56978 12.0021 2.61166C9.79993 2.56978 7.25555 3.76825 5.88357 5.28515C4.51159 6.80206 3.75199 8.77452 3.75215 10.8198V14.2452L2.98985 16.2758C2.8494 16.6504 2.80182 17.0534 2.85121 17.4504C2.90059 17.8473 3.04546 18.2264 3.27341 18.5552C3.50136 18.8839 3.80559 19.1525 4.16005 19.3379C4.5145 19.5233 4.90862 19.6201 5.30865 19.6198H8.63065C8.63065 20.5134 8.98563 21.3704 9.6175 22.0023C10.2494 22.6342 11.1064 22.9891 12 22.9891C12.8935 22.9891 13.7505 22.6342 14.3824 22.0023C15.0143 21.3704 15.3693 20.5134 15.3693 19.6198H18.6957C19.0954 19.6198 19.4893 19.5229 19.8435 19.3375C20.1977 19.1521 20.5017 18.8836 20.7295 18.555C20.9573 18.2265 21.1021 17.8476 21.1515 17.4509C21.201 17.0541 21.1535 16.6513 21.0134 16.2769L20.2522 14.2463V10.8209C20.2523 8.77561 19.4927 6.80316 18.1207 5.28625ZM5.40215 10.8198V14.2474C5.40215 14.4432 5.36585 14.639 5.29765 14.8227L4.53535 16.8555C4.48863 16.9803 4.47282 17.1145 4.48928 17.2468C4.50574 17.379 4.55398 17.5052 4.62987 17.6147C4.70576 17.7243 4.80704 17.8138 4.92506 17.8756C5.04308 17.9374 5.17431 17.9698 5.30755 17.9698H18.6957C18.8289 17.9698 18.9601 17.9374 19.0781 17.8756C19.1962 17.8138 19.2974 17.7243 19.3733 17.6147C19.4492 17.5052 19.4975 17.379 19.5139 17.2468C19.5304 17.1145 19.5146 16.9803 19.4678 16.8555L18.7056 14.8227C18.6371 14.6386 18.6021 14.4438 18.6021 14.2474V10.8198C18.6022 9.95311 18.4314 9.09487 18.0998 8.29412C17.7681 7.49337 17.2819 6.7658 16.6691 6.15293C16.0562 5.54006 15.3286 5.05391 14.5279 4.72223C13.7271 4.39055 12.8689 4.21983 12.0021 4.21983C11.1354 4.21983 10.2772 4.39055 9.47644 4.72223C8.67569 5.05391 7.94811 5.54006 7.33525 6.15293C6.72238 6.7658 6.23623 7.49337 5.90454 8.29412C5.57286 9.09487 5.40215 9.95311 5.40215 10.8198ZM10.7991 20.8074C10.4781 20.4943 10.292 20.0681 10.2807 19.6198H13.7182C13.7068 20.0681 13.5207 20.4943 13.1997 20.8074C12.8786 21.1204 12.4479 21.2956 11.9994 21.2956C11.5509 21.2956 11.1202 21.1204 10.7991 20.8074Z" fill="#67728A" stroke="#67728A" stroke-width="0.5"/>
<path d="M20.43 4.465C20.43 6.37867 18.8787 7.93 16.965 7.93C15.0513 7.93 13.5 6.37867 13.5 4.465C13.5 2.55133 15.0513 1 16.965 1C18.8787 1 20.43 2.55133 20.43 4.465Z" fill="#DA294A" stroke="#DA294A" stroke-width="2.079"/>
</g>
<defs>
<clipPath id="clip0_5062_1633">
<rect width="24" height="24" fill="white"/>
</clipPath>
</defs>
</svg>
