<svg preserveAspectRatio="none" width="100%" height="100%" overflow="visible" style="display: block;" viewBox="0 0 21.8895 22.6705" fill="none" xmlns="http://www.w3.org/2000/svg">
<g id="Group">
<path id="Vector" opacity="0.987" fill-rule="evenodd" clip-rule="evenodd" d="M9.65397 0.098415C10.8285 -0.032805 11.5235 -0.032805 12.7854 0.098415C15.0193 0.429049 17.0901 1.46162 18.6984 3.04681C17.6116 4.07411 16.5391 5.11641 15.4811 6.17341C13.455 4.45621 11.1935 4.05985 8.69655 4.98433C6.86487 5.82673 5.58939 7.19185 4.87011 9.07969C3.69471 8.20462 2.53461 7.30916 1.39035 6.39373C1.31083 6.35188 1.22001 6.33655 1.13115 6.34999C2.94879 2.84539 5.78919 0.760995 9.65235 0.0967949" fill="var(--fill-0, #F44336)"/>
<path id="Vector_2" opacity="0.997" fill-rule="evenodd" clip-rule="evenodd" d="M1.12793 6.35009C1.21973 6.33605 1.30667 6.35063 1.38875 6.39383C2.53301 7.30926 3.6931 8.20471 4.86851 9.07979C4.68355 9.81536 4.56695 10.5665 4.52021 11.3235C4.56017 12.0557 4.67627 12.7745 4.86851 13.4797L1.21541 16.3876C-0.375432 13.0634 -0.404592 9.71753 1.12793 6.35009Z" fill="var(--fill-0, #FFC107)"/>
<path id="Vector_3" opacity="0.999" fill-rule="evenodd" clip-rule="evenodd" d="M18.5249 19.9089C17.3874 18.9058 16.1966 17.9648 14.9576 17.0901C16.1996 16.2132 16.9535 15.0101 17.2192 13.4808H11.1328V9.25419C14.6428 9.22503 18.1512 9.25473 21.658 9.34329C22.3232 12.9559 21.5548 16.2132 19.3527 19.1151C19.0908 19.3935 18.8135 19.6584 18.5249 19.9089Z" fill="var(--fill-0, #448AFF)"/>
<path id="Vector_4" opacity="0.993" fill-rule="evenodd" clip-rule="evenodd" d="M4.86843 13.4812C6.19683 16.7828 8.63223 18.324 12.1746 18.1047C13.169 17.9896 14.1224 17.6422 14.9578 17.0906C16.1976 17.9676 17.3867 18.9072 18.525 19.9094C16.7214 21.5301 14.4218 22.4918 12.0013 22.6375C11.4514 22.6815 10.8988 22.6815 10.3489 22.6375C6.22545 22.1515 3.18093 20.0682 1.21533 16.3875L4.86843 13.4812Z" fill="var(--fill-0, #43A047)"/>
</g>
</svg>
