<svg width="256" height="256" viewBox="0 0 256 256" fill="none" xmlns="http://www.w3.org/2000/svg">
<path d="M161.636 176.3C161.636 185.335 154.312 192.659 145.278 192.659C136.243 192.659 128.92 185.335 128.92 176.3V81.4218C128.92 72.3873 136.243 65.0634 145.278 65.0634C154.312 65.0634 161.636 72.3873 161.636 81.4218L161.636 176.3Z" fill="#80D5DB"/>
<path d="M88.7996 170.715C88.7996 182.497 79.4871 192.049 67.9996 192.049C62.2558 192.049 57.5996 187.273 57.5996 181.382L57.5996 78.4486C57.5996 69.6121 64.5839 62.4486 73.1996 62.4486C81.8152 62.4486 88.7996 69.6121 88.7996 78.4486L88.7996 170.715Z" fill="#80D5DB"/>
<path d="M58.5402 69.1294C61.9029 64.5608 67.2103 62.2466 72.5001 62.4869C77.7902 62.2464 83.0982 64.5605 86.4611 69.1294L158.309 166.747C163.646 173.998 162.063 184.18 154.774 189.489C147.484 194.798 137.248 193.224 131.911 185.973L72.5001 105.253L60.0607 122.155C54.7235 129.406 44.4878 130.981 37.1984 125.671C29.909 120.362 28.3262 110.18 33.6632 102.928L58.5402 69.1294Z" fill="#00ADB5"/>
<path d="M134.984 94.7371C128.029 85.2873 128.3 73.3227 135.589 68.0133C142.879 62.704 154.045 64.5502 161 74L193.8 119.556C200.755 129.006 200.485 140.97 193.195 146.28C185.906 151.589 174.358 148.232 167.403 138.782L134.984 94.7371Z" fill="#00ADB5"/>
<path d="M231.991 176.4C231.991 185.016 225.006 192 216.391 192C207.775 192 200.791 185.016 200.791 176.4C200.791 167.784 207.775 160.8 216.391 160.8C225.006 160.8 231.991 167.784 231.991 176.4Z" fill="#00ADB5"/>
</svg>
