<svg width="24" height="24" viewBox="0 0 24 24" fill="none" xmlns="http://www.w3.org/2000/svg">
<path fill-rule="evenodd" clip-rule="evenodd" d="M10.9351 20.856L7.87507 16.125L3.14407 13.065C2.57912 12.7001 2.12769 12.1843 1.84094 11.5759C1.55419 10.9676 1.44358 10.2911 1.52166 9.6231C1.59973 8.9551 1.86336 8.32233 2.28267 7.79651C2.70198 7.27069 3.2602 6.87283 3.89407 6.64805L17.8036 1.70405C18.4303 1.48153 19.1072 1.44116 19.7559 1.5876C20.4046 1.73405 20.9986 2.06132 21.4689 2.5315C21.9392 3.00167 22.2667 3.5955 22.4134 4.24416C22.56 4.89282 22.5199 5.56977 22.2976 6.19655L20.1751 5.44505C20.2564 5.21901 20.2718 4.97449 20.2194 4.74003C20.167 4.50558 20.049 4.29088 19.8791 4.121C19.7092 3.95113 19.4945 3.8331 19.2601 3.78069C19.0256 3.72828 18.7811 3.74367 18.5551 3.82505L4.65007 8.76905C4.41222 8.85296 4.20264 9.00183 4.04508 9.19878C3.88752 9.39572 3.78828 9.63287 3.75861 9.88333C3.72894 10.1338 3.77003 10.3876 3.87722 10.6159C3.98441 10.8442 4.15341 11.0379 4.36507 11.175L8.53507 13.8735L13.4536 8.95355C13.5574 8.84615 13.6816 8.7605 13.8189 8.70161C13.9561 8.64271 14.1038 8.61175 14.2531 8.61052C14.4025 8.6093 14.5507 8.63783 14.6889 8.69446C14.8271 8.75109 14.9527 8.83469 15.0583 8.94036C15.1638 9.04604 15.2473 9.17169 15.3038 9.30997C15.3603 9.44826 15.3887 9.59641 15.3873 9.74579C15.386 9.89516 15.3549 10.0428 15.2958 10.18C15.2368 10.3172 15.1511 10.4413 15.0436 10.545L10.1251 15.465L12.8236 19.6335C12.9605 19.8453 13.154 20.0144 13.3821 20.1218C13.6102 20.2292 13.8639 20.2706 14.1143 20.2413C14.3648 20.2119 14.602 20.113 14.7991 19.9558C14.9962 19.7985 15.1453 19.5892 15.2296 19.3515L20.1751 5.44355L22.2946 6.19655L17.3506 20.106C17.1256 20.7395 16.7277 21.2974 16.2021 21.7164C15.6764 22.1354 15.0439 22.3989 14.3761 22.4769C13.7084 22.555 13.0322 22.4445 12.4241 22.1581C11.8159 21.8716 11.3001 21.4206 10.9351 20.856Z" fill="#67728A"/>
</svg>
