<svg width="713" height="100" viewBox="0 0 713 100" fill="none" xmlns="http://www.w3.org/2000/svg">
<path d="M673.355 18.5601C673.952 17.8775 677.024 17.5361 682.571 17.5361C687.008 17.5361 689.995 17.7495 691.531 18.1761C693.067 18.5175 694.134 19.3281 694.731 20.6081C695.158 21.3761 695.371 22.8268 695.371 24.9601C695.371 27.0081 695.2 28.7148 694.859 30.0801L694.347 32.5121L698.315 32.8961C700.534 33.1521 703.307 33.2801 706.635 33.2801C709.536 33.2801 711.286 33.6215 711.883 34.3041C712.31 34.9015 712.523 36.9068 712.523 40.3201C712.523 46.2935 712.139 50.0481 711.371 51.5841C710.347 53.4615 706.464 54.4001 699.723 54.4001H692.811L692.427 58.1121C692.256 59.6481 692.171 60.8855 692.171 61.8241C692.171 67.2855 692.768 71.2108 693.963 73.6001C694.56 74.8801 695.414 75.7335 696.523 76.1601C697.718 76.5015 699.851 76.7148 702.923 76.8001H707.403L708.427 79.2321C708.854 80.3415 709.067 81.2801 709.067 82.0481C709.067 82.8161 708.939 83.7548 708.683 84.8641C707.744 89.0455 706.08 92.0321 703.691 93.8241C701.302 95.7015 697.803 96.6401 693.195 96.6401C687.563 96.6401 682.486 95.3175 677.963 92.6721C673.44 90.1121 670.582 86.8695 669.387 82.9441C668.448 79.8721 667.979 75.7335 667.979 70.5281C667.979 65.3228 668.448 60.5868 669.387 56.3201L669.899 54.6561L663.499 54.1441C658.976 53.8028 656.416 53.4615 655.819 53.1201C654.198 52.1815 653.387 49.2375 653.387 44.2881C653.387 42.7521 653.43 41.5575 653.515 40.7041C653.515 40.4481 653.558 40.0215 653.643 39.4241C653.899 35.4988 654.368 33.1948 655.051 32.5121C655.819 31.8295 658.251 31.3601 662.347 31.1041C662.944 31.0188 663.414 30.9761 663.755 30.9761L672.331 30.5921V25.0881C672.331 21.4188 672.672 19.2428 673.355 18.5601Z" fill="#4DC4CC"/>
<path d="M625.064 1.53585C625.832 1.27985 626.856 1.15186 628.136 1.15186C629.928 1.15186 631.464 1.36519 632.744 1.79185C634.707 2.47452 636.413 3.92518 637.864 6.14385C639.4 8.36252 640.211 10.5385 640.296 12.6719C640.296 15.4025 639.144 17.9199 636.84 20.2239C634.536 22.5279 632.019 23.6799 629.288 23.6799C626.387 23.5945 623.869 22.4425 621.736 20.2239C619.603 18.0052 618.493 15.4025 618.408 12.4159C618.408 10.2825 619.091 8.10652 620.456 5.88786C621.821 3.66919 623.357 2.21852 625.064 1.53585ZM621.864 31.6159C623.144 31.1892 625.064 30.9759 627.624 30.9759C629.928 30.9759 632.147 31.1892 634.28 31.6159C635.475 31.8719 636.328 32.1705 636.84 32.5119C637.437 32.7679 637.992 33.1519 638.504 33.6639C639.016 34.0905 639.315 35.0719 639.4 36.6079C639.571 38.0585 639.699 39.5945 639.784 41.2159C639.869 42.7519 639.955 45.3545 640.04 49.0239C640.381 67.3705 641.149 81.5785 642.344 91.6479C642.515 93.3545 642.6 94.3785 642.6 94.7199C642.6 95.8292 642.429 96.6399 642.088 97.1519C641.747 97.6639 640.083 97.9199 637.096 97.9199C634.877 97.9199 632.957 97.8772 631.336 97.7919C625.277 97.6212 621.693 97.2799 620.584 96.7679C618.963 95.9999 618.024 93.7385 617.768 89.9839C617.683 89.0452 617.555 86.0159 617.384 80.8959C617.299 78.9332 617.256 75.7332 617.256 71.2959C617.256 63.4452 617.469 55.6799 617.896 47.9999C618.323 40.2345 618.835 35.6692 619.432 34.3039C620.029 32.9385 620.84 32.0425 621.864 31.6159Z" fill="#4DC4CC"/>
<path d="M528.57 1.408C533.263 0.469332 536.677 0 538.81 0C541.285 0 543.589 0.0426661 545.722 0.127998C550.33 0.213331 553.445 0.554665 555.066 1.152C556.687 1.74933 557.626 2.90133 557.882 4.608C559.162 12.8853 560.101 27.648 560.698 48.896L561.082 64.64L564.538 65.024C566.415 65.1947 570.853 65.28 577.85 65.28H585.402L602.81 65.024L603.962 66.56C604.73 67.4987 605.285 69.1627 605.626 71.552C606.309 78.8907 606.65 83.456 606.65 85.248C606.65 86.9547 606.479 88.1493 606.138 88.832C605.797 89.5147 605.157 90.0693 604.218 90.496C603.023 91.008 599.909 91.264 594.874 91.264C580.367 91.264 562.789 92.544 542.138 95.104C538.469 95.5307 535.951 95.744 534.586 95.744C532.794 95.744 531.471 95.488 530.618 94.976C529.85 94.464 529.21 93.568 528.698 92.288C528.015 90.5813 527.461 87.4667 527.034 82.944C525.242 64.3413 523.493 43.904 521.786 21.632C521.103 12.5013 520.762 7.38133 520.762 6.272C520.762 4.65066 521.018 3.62666 521.53 3.2C522.042 2.77333 524.389 2.176 528.57 1.408Z" fill="#4DC4CC"/>
<path d="M470.98 18.5601C471.577 17.8775 474.649 17.5361 480.196 17.5361C484.633 17.5361 487.62 17.7495 489.156 18.1761C490.692 18.5175 491.759 19.3281 492.356 20.6081C492.783 21.3761 492.996 22.8268 492.996 24.9601C492.996 27.0081 492.825 28.7148 492.484 30.0801L491.972 32.5121L495.94 32.8961C498.159 33.1521 500.932 33.2801 504.26 33.2801C507.161 33.2801 508.911 33.6215 509.508 34.3041C509.935 34.9015 510.148 36.9068 510.148 40.3201C510.148 46.2935 509.764 50.0481 508.996 51.5841C507.972 53.4615 504.089 54.4001 497.348 54.4001H490.436L490.052 58.1121C489.881 59.6481 489.796 60.8855 489.796 61.8241C489.796 67.2855 490.393 71.2108 491.588 73.6001C492.185 74.8801 493.039 75.7335 494.148 76.1601C495.343 76.5015 497.476 76.7148 500.548 76.8001H505.028L506.052 79.2321C506.479 80.3415 506.692 81.2801 506.692 82.0481C506.692 82.8161 506.564 83.7548 506.308 84.8641C505.369 89.0455 503.705 92.0321 501.316 93.8241C498.927 95.7015 495.428 96.6401 490.82 96.6401C485.188 96.6401 480.111 95.3175 475.588 92.6721C471.065 90.1121 468.207 86.8695 467.012 82.9441C466.073 79.8721 465.604 75.7335 465.604 70.5281C465.604 65.3228 466.073 60.5868 467.012 56.3201L467.524 54.6561L461.124 54.1441C456.601 53.8028 454.041 53.4615 453.444 53.1201C451.823 52.1815 451.012 49.2375 451.012 44.2881C451.012 42.7521 451.055 41.5575 451.14 40.7041C451.14 40.4481 451.183 40.0215 451.268 39.4241C451.524 35.4988 451.993 33.1948 452.676 32.5121C453.444 31.8295 455.876 31.3601 459.972 31.1041C460.569 31.0188 461.039 30.9761 461.38 30.9761L469.956 30.5921V25.0881C469.956 21.4188 470.297 19.2428 470.98 18.5601Z" fill="#00ADB5"/>
<path d="M372.396 30.08C373.079 29.312 376.065 28.928 381.356 28.928C385.793 28.928 388.524 29.1413 389.548 29.568C390.572 29.9093 391.084 30.9333 391.084 32.64V34.816L395.18 32.896C400.727 30.2506 406.06 28.928 411.18 28.928C416.129 28.928 420.481 30.1226 424.236 32.512C426.113 33.7066 428.119 35.6266 430.252 38.272C432.471 40.832 434.177 43.3493 435.372 45.824C437.335 49.7493 438.615 53.376 439.212 56.704C439.895 60.032 440.279 64.6827 440.364 70.656V72.192C440.364 86.016 438.999 93.696 436.268 95.232C434.903 96.0853 430.892 96.512 424.236 96.512C423.041 96.512 422.188 96.4267 421.676 96.256C420.481 95.9146 419.671 94.848 419.244 93.056C418.817 91.264 418.476 87.4666 418.22 81.664C417.879 74.1546 417.239 68.9493 416.3 66.048C415.532 63.488 414.337 61.2266 412.716 59.264C411.18 57.216 409.601 55.936 407.98 55.424C407.212 55.168 406.444 55.04 405.676 55.04C403.372 55.04 401.153 55.9787 399.02 57.856C396.972 59.648 395.649 61.952 395.052 64.768C394.711 66.1333 394.54 68.736 394.54 72.576C394.54 78.208 394.839 83.968 395.436 89.856C395.521 90.624 395.564 91.5627 395.564 92.672C395.564 94.464 394.924 95.5306 393.644 95.872C392.364 96.2986 389.079 96.512 383.788 96.512C379.095 96.512 376.236 96.4267 375.212 96.256C374.188 96.1706 373.377 95.8293 372.78 95.232C372.183 94.5493 371.799 92.5867 371.628 89.344C371.543 86.1013 371.5 77.1413 371.5 62.464C371.5 41.5573 371.799 30.7626 372.396 30.08Z" fill="#00ADB5"/>
<path d="M326.51 39.2959C325.401 38.3572 324.078 37.8879 322.542 37.8879C320.75 37.8879 319.214 38.5279 317.934 39.8079C316.739 41.0025 316.142 42.2399 316.142 43.5199V45.1839H322.67C327.107 45.1839 329.326 44.9705 329.326 44.5439C329.326 42.7519 328.387 41.0025 326.51 39.2959ZM317.422 16.7679C319.214 16.4265 321.219 16.2559 323.438 16.2559C327.79 16.2559 331.843 17.0239 335.598 18.5599C339.438 20.0959 342.425 22.1865 344.558 24.8319C349.251 30.7199 351.598 39.5519 351.598 51.3279V53.7599C351.427 59.0505 351.129 61.9092 350.702 62.3359C349.678 63.3599 340.718 64.3839 323.822 65.4079C320.323 65.5785 318.147 65.7492 317.294 65.9199C316.526 66.0905 316.142 66.4745 316.142 67.0719C316.142 68.0105 316.483 69.1625 317.166 70.5279C317.934 71.8079 318.745 72.6612 319.598 73.0879C320.537 73.5999 322.627 73.8559 325.87 73.8559C330.393 73.8559 334.062 73.4719 336.878 72.7039C339.609 72.1065 341.401 71.8079 342.254 71.8079C344.046 71.8079 346.947 72.9599 350.958 75.2639C354.883 77.5679 357.486 79.2319 358.766 80.2559C360.131 81.1945 360.814 82.0479 360.814 82.8159C360.814 83.6692 359.875 84.9492 357.998 86.6559C353.134 91.0932 345.923 94.3359 336.366 96.3839C333.635 96.9812 329.667 97.2799 324.462 97.2799C319.598 97.2799 315.971 96.9812 313.582 96.3839C307.353 94.9332 302.19 92.1599 298.094 88.0639C293.998 83.9679 291.31 78.9759 290.03 73.0879C289.433 70.6132 289.134 67.0719 289.134 62.4639C289.134 52.3945 290.201 43.9465 292.334 37.1199C293.955 31.9145 297.027 27.4772 301.55 23.8079C306.073 20.1385 311.363 17.7919 317.422 16.7679Z" fill="#00ADB5"/>
<path d="M200.124 32.3842C203.281 30.2508 207.676 29.1842 213.308 29.1842C217.489 29.1842 221.073 29.7815 224.06 30.9762C226.791 32.0002 229.265 33.6215 231.484 35.8402L234.812 39.1682L237.628 36.3522C242.321 31.4882 248.636 29.0562 256.572 29.0562C262.204 29.0562 266.855 30.4642 270.524 33.2802C272.06 34.4748 273.468 36.4802 274.748 39.2962C276.113 42.1122 277.009 45.0562 277.436 48.1282C277.863 51.2855 278.247 59.4775 278.588 72.7042C278.759 81.5788 278.844 86.2722 278.844 86.7842C278.844 90.5388 278.46 92.7575 277.692 93.4402C276.924 94.1228 273.596 94.6348 267.708 94.9762C264.636 95.1468 262.716 95.2322 261.948 95.2322C259.047 95.2322 257.255 94.7628 256.572 93.8242C255.889 92.8855 255.548 90.6668 255.548 87.1682C255.548 78.7201 254.78 72.9602 253.244 69.8882C252.22 67.8402 250.897 66.8162 249.276 66.8162C248.935 66.8162 248.721 66.8588 248.636 66.9442C247.953 67.2855 247.271 68.0108 246.588 69.1202C245.905 70.0588 245.393 74.2402 245.052 81.6642C244.967 86.3575 244.796 89.4295 244.54 90.8802C244.369 92.3308 243.943 93.4828 243.26 94.3362C242.663 95.1895 242.023 95.7015 241.34 95.8722C240.657 96.0428 238.823 96.2135 235.836 96.3842C234.897 96.4695 233.745 96.5122 232.38 96.5122C230.503 96.5122 229.095 96.0428 228.156 95.1042C227.473 94.5068 227.004 93.6962 226.748 92.6722C226.577 91.7335 226.407 89.5148 226.236 86.0162C225.895 80.4695 225.212 76.1175 224.188 72.9602C223.164 69.7175 221.969 68.0962 220.604 68.0962C219.495 68.0962 218.343 69.2482 217.148 71.5522C216.209 73.6002 215.569 77.7815 215.228 84.0962C214.972 88.7042 214.716 91.4775 214.46 92.4162C214.289 93.3548 213.777 94.2082 212.924 94.9762C211.644 96.0002 209.767 96.5122 207.292 96.5122H205.372C199.228 96.5122 195.388 95.4455 193.852 93.3122C192.657 91.6908 191.676 87.6802 190.908 81.2802C190.14 74.7948 189.756 68.0535 189.756 61.0562C189.756 53.0348 190.225 47.5735 191.164 44.6722C191.932 42.2828 193.169 39.9362 194.876 37.6322C196.583 35.2428 198.332 33.4935 200.124 32.3842Z" fill="#00ADB5"/>
<path d="M147.728 55.0401C146.448 54.4428 144.997 54.1441 143.376 54.1441C139.792 54.1441 136.976 55.4241 134.928 57.9841C133.392 59.9468 132.624 62.2081 132.624 64.7681C132.624 66.9014 133.179 68.9494 134.288 70.9121C135.397 72.8748 136.933 74.3681 138.896 75.3921C140.517 76.2454 142.096 76.6721 143.632 76.6721C146.363 76.6721 148.581 75.4774 150.288 73.0881C151.995 70.6988 152.848 67.5414 152.848 63.6161C152.848 59.3494 151.141 56.4908 147.728 55.0401ZM126.352 29.9521C129.424 28.9281 133.392 28.3734 138.256 28.2881H138.64C148.624 28.2881 157.029 30.6348 163.856 35.3281C170.683 40.0214 175.419 46.6774 178.064 55.2961C178.917 58.1974 179.344 61.0134 179.344 63.7441C179.344 65.5361 179.301 67.0721 179.216 68.3521C179.131 72.1068 178.917 74.6241 178.576 75.9041C178.32 77.1841 177.723 78.8481 176.784 80.8961C173.797 86.7841 169.275 91.2641 163.216 94.3361C156.56 97.5788 148.581 99.2001 139.28 99.2001C135.781 99.2001 132.539 98.8587 129.552 98.1761C123.408 96.8108 118.373 93.3121 114.448 87.6801C110.523 82.1334 108.005 74.9654 106.896 66.1761C106.64 63.9574 106.512 61.8668 106.512 59.9041C106.512 52.4801 108.219 46.1654 111.632 40.9601C115.131 35.7548 120.037 32.0854 126.352 29.9521Z" fill="#00ADB5"/>
<path d="M67.712 2.04793C70.1013 1.36526 72.96 1.02393 76.288 1.02393H77.696C80.256 1.02393 82.5173 1.53593 84.48 2.55993C87.296 4.0106 89.344 6.48526 90.624 9.98393C91.904 13.3973 93.1413 19.5413 94.336 28.4159C95.5307 37.9733 96.128 47.2319 96.128 56.1919C96.128 68.3946 95.1893 77.4399 93.312 83.3279C92.1173 86.9973 89.8987 89.8986 86.656 92.0319C83.4987 94.2506 79.7867 95.3599 75.52 95.3599C72.7893 95.3599 71.1253 94.6773 70.528 93.3119C69.9307 92.0319 69.3333 87.9359 68.736 81.0239C67.968 72.0639 67.4133 67.5839 67.072 67.5839L66.944 67.7119C66.7733 67.8826 65.664 72.4053 63.616 81.2799C61.7387 89.7279 60.3733 94.3786 59.52 95.2319C58.752 95.7439 55.4667 95.9999 49.664 95.9999C44.2027 95.9999 40.8747 95.6159 39.68 94.8479C38.5707 94.0799 37.5893 91.6053 36.736 87.4239C36.3093 85.4613 35.6693 82.7733 34.816 79.3599C34.048 75.9466 33.28 72.9599 32.512 70.3999C31.8293 67.7546 31.4453 66.4319 31.36 66.4319C31.2747 66.4319 30.8053 68.6933 29.952 73.2159C29.0133 78.6773 28.1173 82.9866 27.264 86.1439C26.24 90.4106 25.0453 93.1413 23.68 94.3359L21.504 96.2559L14.208 95.8719C10.0267 95.7013 6.99733 95.2746 5.12 94.5919C3.24267 93.9946 1.96267 92.9706 1.28 91.5199C0.426667 89.8133 0 75.5199 0 48.6399C0 34.9866 0.213333 26.1546 0.64 22.1439C2.00533 11.1359 5.632 4.73593 11.52 2.94393C14.08 2.17593 17.3227 1.79193 21.248 1.79193C24.32 1.79193 26.752 2.04793 28.544 2.55993C35.712 4.60793 41.6 12.0746 46.208 24.9599C47.8293 29.2266 48.6827 31.3599 48.768 31.3599C49.1093 31.3599 49.8773 29.5253 51.072 25.8559C55.936 11.8613 61.4827 3.92526 67.712 2.04793Z" fill="#00ADB5"/>
</svg>
