<svg width="241" height="46" viewBox="0 0 241 46" fill="none" xmlns="http://www.w3.org/2000/svg">
<g clip-path="url(#clip0_5180_1522)">
<path d="M176.776 14.7758C176.926 14.6051 177.694 14.5198 179.08 14.5198C180.19 14.5198 180.936 14.5731 181.32 14.6798C181.704 14.7651 181.971 14.9678 182.12 15.2878C182.227 15.4798 182.28 15.8424 182.28 16.3758C182.28 16.8878 182.238 17.3144 182.152 17.6558L182.024 18.2638L183.016 18.3598C183.571 18.4238 184.264 18.4558 185.096 18.4558C185.822 18.4558 186.259 18.5411 186.408 18.7118C186.515 18.8611 186.568 19.3624 186.568 20.2158C186.568 21.7091 186.472 22.6478 186.28 23.0318C186.024 23.5011 185.054 23.7358 183.368 23.7358H181.64L181.544 24.6638C181.502 25.0478 181.48 25.3571 181.48 25.5918C181.48 26.9571 181.63 27.9384 181.928 28.5358C182.078 28.8558 182.291 29.0691 182.568 29.1758C182.867 29.2611 183.4 29.3144 184.168 29.3358H185.288L185.544 29.9438C185.651 30.2211 185.704 30.4558 185.704 30.6478C185.704 30.8398 185.672 31.0744 185.608 31.3518C185.374 32.3971 184.958 33.1438 184.36 33.5918C183.763 34.0611 182.888 34.2958 181.736 34.2958C180.328 34.2958 179.059 33.9651 177.928 33.3038C176.798 32.6638 176.083 31.8531 175.784 30.8718C175.55 30.1038 175.432 29.0691 175.432 27.7678C175.432 26.4664 175.55 25.2824 175.784 24.2158L175.912 23.7998L174.312 23.6718C173.182 23.5864 172.542 23.5011 172.392 23.4158C171.987 23.1811 171.784 22.4451 171.784 21.2078C171.784 20.8238 171.795 20.5251 171.816 20.3118C171.816 20.2478 171.827 20.1411 171.848 19.9918C171.912 19.0104 172.03 18.4344 172.2 18.2638C172.392 18.0931 173 17.9758 174.024 17.9118C174.174 17.8904 174.291 17.8798 174.376 17.8798L176.52 17.7838V16.4078C176.52 15.4904 176.606 14.9464 176.776 14.7758Z" fill="#67728A"/>
<path d="M165.834 10.5836C166.581 10.4769 167.103 10.4236 167.402 10.4236C167.957 10.4236 168.33 10.5729 168.522 10.8716C168.735 11.1489 168.874 11.6929 168.938 12.5036C169.023 13.3569 169.066 14.0822 169.066 14.6796C169.066 15.3622 168.991 15.7889 168.842 15.9596C168.693 16.1516 168.191 16.3116 167.338 16.4396L166.026 16.6316L165.962 21.9116C165.962 22.6369 165.951 23.5222 165.93 24.5676C165.93 25.5916 165.919 26.3596 165.898 26.8716C165.898 27.3623 165.898 27.6503 165.898 27.7356L165.834 28.2156L166.986 28.3116C167.754 28.3969 168.191 28.4929 168.298 28.5996C168.554 28.8556 168.682 29.6129 168.682 30.8716C168.682 31.3409 168.671 31.7036 168.65 31.9596C168.607 32.7276 168.554 33.2289 168.49 33.4636C168.426 33.6983 168.309 33.9009 168.138 34.0716C167.903 34.2849 167.647 34.3916 167.37 34.3916C167.135 34.3916 166.943 34.3809 166.794 34.3596C165.77 34.2743 164.597 34.2316 163.274 34.2316C162.271 34.2316 160.661 34.2743 158.442 34.3596C157.29 34.4236 156.501 34.4556 156.074 34.4556C155.562 34.4556 155.167 34.3703 154.89 34.1996L154.442 33.9116L154.57 31.6076C154.655 29.9863 154.741 29.1009 154.826 28.9516C154.933 28.7383 155.402 28.6316 156.234 28.6316C157.066 28.6316 157.503 28.5676 157.546 28.4396C157.61 28.2689 157.717 26.6263 157.866 23.5116C158.079 20.2049 158.197 18.2316 158.218 17.5916L158.282 16.4076L156.874 16.2796C155.615 16.1729 154.986 15.9063 154.986 15.4796C154.986 15.3089 155.039 15.0103 155.146 14.5836C155.21 14.3489 155.306 13.7729 155.434 12.8556C155.583 11.9169 155.679 11.3729 155.722 11.2236C155.807 11.0316 157.375 10.9036 160.426 10.8396C163.349 10.7756 165.151 10.6903 165.834 10.5836Z" fill="#67728A"/>
<path d="M132.142 10.4877C133.316 10.2531 134.169 10.1357 134.702 10.1357C135.321 10.1357 135.897 10.1464 136.43 10.1677C137.582 10.1891 138.361 10.2744 138.766 10.4237C139.172 10.5731 139.406 10.8611 139.47 11.2877C139.79 13.3571 140.025 17.0477 140.174 22.3597L140.27 26.2957L141.134 26.3917C141.604 26.4344 142.713 26.4557 144.462 26.4557H146.35L150.702 26.3917L150.99 26.7757C151.182 27.0104 151.321 27.4264 151.406 28.0237C151.577 29.8584 151.662 30.9997 151.662 31.4477C151.662 31.8744 151.62 32.1731 151.534 32.3437C151.449 32.5144 151.289 32.6531 151.054 32.7597C150.756 32.8877 149.977 32.9517 148.718 32.9517C145.092 32.9517 140.697 33.2717 135.534 33.9117C134.617 34.0184 133.988 34.0717 133.646 34.0717C133.198 34.0717 132.868 34.0077 132.654 33.8797C132.462 33.7517 132.302 33.5277 132.174 33.2077C132.004 32.7811 131.865 32.0024 131.758 30.8717C131.31 26.2211 130.873 21.1117 130.446 15.5437C130.276 13.2611 130.19 11.9811 130.19 11.7037C130.19 11.2984 130.254 11.0424 130.382 10.9357C130.51 10.8291 131.097 10.6797 132.142 10.4877Z" fill="#67728A"/>
<path d="M117.745 14.7758C117.894 14.6051 118.662 14.5198 120.049 14.5198C121.158 14.5198 121.905 14.5731 122.289 14.6798C122.673 14.7651 122.94 14.9678 123.089 15.2878C123.196 15.4798 123.249 15.8424 123.249 16.3758C123.249 16.8878 123.206 17.3144 123.121 17.6558L122.993 18.2638L123.985 18.3598C124.54 18.4238 125.233 18.4558 126.065 18.4558C126.79 18.4558 127.228 18.5411 127.377 18.7118C127.484 18.8611 127.537 19.3624 127.537 20.2158C127.537 21.7091 127.441 22.6478 127.249 23.0318C126.993 23.5011 126.022 23.7358 124.337 23.7358H122.609L122.513 24.6638C122.47 25.0478 122.449 25.3571 122.449 25.5918C122.449 26.9571 122.598 27.9384 122.897 28.5358C123.046 28.8558 123.26 29.0691 123.537 29.1758C123.836 29.2611 124.369 29.3144 125.137 29.3358H126.257L126.513 29.9438C126.62 30.2211 126.673 30.4558 126.673 30.6478C126.673 30.8398 126.641 31.0744 126.577 31.3518C126.342 32.3971 125.926 33.1438 125.329 33.5918C124.732 34.0611 123.857 34.2958 122.705 34.2958C121.297 34.2958 120.028 33.9651 118.897 33.3038C117.766 32.6638 117.052 31.8531 116.753 30.8718C116.518 30.1038 116.401 29.0691 116.401 27.7678C116.401 26.4664 116.518 25.2824 116.753 24.2158L116.881 23.7998L115.281 23.6718C114.15 23.5864 113.51 23.5011 113.361 23.4158C112.956 23.1811 112.753 22.4451 112.753 21.2078C112.753 20.8238 112.764 20.5251 112.785 20.3118C112.785 20.2478 112.796 20.1411 112.817 19.9918C112.881 19.0104 112.998 18.4344 113.169 18.2638C113.361 18.0931 113.969 17.9758 114.993 17.9118C115.142 17.8904 115.26 17.8798 115.345 17.8798L117.489 17.7838V16.4078C117.489 15.4904 117.574 14.9464 117.745 14.7758Z" fill="#67728A"/>
<path d="M93.099 17.6557C93.2697 17.4637 94.0163 17.3677 95.339 17.3677C96.4483 17.3677 97.131 17.421 97.387 17.5277C97.643 17.613 97.771 17.869 97.771 18.2957V18.8397L98.795 18.3597C100.182 17.6983 101.515 17.3677 102.795 17.3677C104.032 17.3677 105.12 17.6663 106.059 18.2637C106.528 18.5623 107.03 19.0423 107.563 19.7037C108.118 20.3437 108.544 20.973 108.843 21.5917C109.334 22.573 109.654 23.4797 109.803 24.3117C109.974 25.1437 110.07 26.3063 110.091 27.7997V28.1837C110.091 31.6397 109.75 33.5597 109.067 33.9437C108.726 34.157 107.723 34.2637 106.059 34.2637C105.76 34.2637 105.547 34.2423 105.419 34.1997C105.12 34.1143 104.918 33.8477 104.811 33.3997C104.704 32.9517 104.619 32.0023 104.555 30.5517C104.47 28.6743 104.31 27.373 104.075 26.6477C103.883 26.0077 103.584 25.4423 103.179 24.9517C102.795 24.4397 102.4 24.1197 101.995 23.9917C101.803 23.9277 101.611 23.8957 101.419 23.8957C100.843 23.8957 100.288 24.1303 99.755 24.5997C99.243 25.0477 98.9123 25.6237 98.763 26.3277C98.6777 26.669 98.635 27.3197 98.635 28.2797C98.635 29.6877 98.7097 31.1277 98.859 32.5997C98.8803 32.7917 98.891 33.0263 98.891 33.3037C98.891 33.7517 98.731 34.0183 98.411 34.1037C98.091 34.2103 97.2697 34.2637 95.947 34.2637C94.7737 34.2637 94.059 34.2423 93.803 34.1997C93.547 34.1783 93.3443 34.093 93.195 33.9437C93.0457 33.773 92.9497 33.2823 92.907 32.4717C92.8857 31.661 92.875 29.421 92.875 25.7517C92.875 20.525 92.9497 17.8263 93.099 17.6557Z" fill="#67728A"/>
<path d="M81.6274 19.9597C81.3501 19.725 81.0195 19.6077 80.6355 19.6077C80.1875 19.6077 79.8035 19.7677 79.4835 20.0877C79.1848 20.3864 79.0355 20.6957 79.0355 21.0157V21.4317H80.6674C81.7768 21.4317 82.3315 21.3784 82.3315 21.2717C82.3315 20.8237 82.0968 20.3864 81.6274 19.9597ZM79.3555 14.3277C79.8035 14.2424 80.3048 14.1997 80.8595 14.1997C81.9475 14.1997 82.9608 14.3917 83.8995 14.7757C84.8595 15.1597 85.6061 15.6824 86.1395 16.3437C87.3128 17.8157 87.8995 20.0237 87.8995 22.9677V23.5757C87.8568 24.8984 87.7821 25.613 87.6755 25.7197C87.4195 25.9757 85.1795 26.2317 80.9555 26.4877C80.0808 26.5304 79.5368 26.573 79.3234 26.6157C79.1314 26.6584 79.0355 26.7544 79.0355 26.9037C79.0355 27.1384 79.1208 27.4264 79.2915 27.7677C79.4835 28.0877 79.6861 28.301 79.8995 28.4077C80.1341 28.5357 80.6568 28.5997 81.4675 28.5997C82.5981 28.5997 83.5155 28.5037 84.2195 28.3117C84.9021 28.1624 85.3501 28.0877 85.5635 28.0877C86.0115 28.0877 86.7368 28.3757 87.7395 28.9517C88.7208 29.5277 89.3715 29.9437 89.6915 30.1997C90.0328 30.4344 90.2035 30.6477 90.2035 30.8397C90.2035 31.053 89.9688 31.373 89.4995 31.7997C88.2834 32.909 86.4808 33.7197 84.0915 34.2317C83.4088 34.381 82.4168 34.4557 81.1154 34.4557C79.8994 34.4557 78.9928 34.381 78.3955 34.2317C76.8381 33.869 75.5475 33.1757 74.5235 32.1517C73.4995 31.1277 72.8275 29.8797 72.5075 28.4077C72.3581 27.789 72.2834 26.9037 72.2834 25.7517C72.2834 23.2344 72.5501 21.1224 73.0835 19.4157C73.4888 18.1144 74.2568 17.005 75.3875 16.0877C76.5181 15.1704 77.8408 14.5837 79.3555 14.3277Z" fill="#67728A"/>
<path d="M50.031 18.2317C50.8203 17.6983 51.919 17.4317 53.327 17.4317C54.3723 17.4317 55.2683 17.581 56.015 17.8797C56.6976 18.1357 57.3163 18.541 57.871 19.0957L58.703 19.9277L59.407 19.2237C60.5803 18.0077 62.159 17.3997 64.143 17.3997C65.551 17.3997 66.7136 17.7517 67.631 18.4557C68.015 18.7543 68.367 19.2557 68.687 19.9597C69.0283 20.6637 69.2523 21.3997 69.359 22.1677C69.4656 22.957 69.5616 25.005 69.647 28.3117C69.6896 30.5303 69.711 31.7037 69.711 31.8317C69.711 32.7703 69.615 33.325 69.423 33.4957C69.231 33.6663 68.399 33.7943 66.927 33.8797C66.159 33.9223 65.679 33.9437 65.487 33.9437C64.7616 33.9437 64.3136 33.8263 64.143 33.5917C63.9723 33.357 63.887 32.8023 63.887 31.9277C63.887 29.8157 63.695 28.3757 63.311 27.6077C63.055 27.0957 62.7243 26.8397 62.319 26.8397C62.2336 26.8397 62.1803 26.8503 62.159 26.8717C61.9883 26.957 61.8176 27.1383 61.647 27.4157C61.4763 27.6503 61.3483 28.6957 61.263 30.5517C61.2416 31.725 61.199 32.493 61.135 32.8557C61.0923 33.2183 60.9856 33.5063 60.815 33.7197C60.6656 33.933 60.5056 34.061 60.335 34.1037C60.1643 34.1463 59.7056 34.189 58.959 34.2317C58.7243 34.253 58.4363 34.2637 58.095 34.2637C57.6256 34.2637 57.2736 34.1463 57.039 33.9117C56.8683 33.7623 56.751 33.5597 56.687 33.3037C56.6443 33.069 56.6016 32.5143 56.559 31.6397C56.4736 30.253 56.303 29.165 56.047 28.3757C55.791 27.565 55.4923 27.1597 55.151 27.1597C54.8736 27.1597 54.5856 27.4477 54.287 28.0237C54.0523 28.5357 53.8923 29.581 53.807 31.1597C53.743 32.3117 53.679 33.005 53.615 33.2397C53.5723 33.4743 53.4443 33.6877 53.231 33.8797C52.911 34.1357 52.4416 34.2637 51.823 34.2637H51.343C49.807 34.2637 48.847 33.997 48.463 33.4637C48.1643 33.0583 47.919 32.0557 47.727 30.4557C47.535 28.8343 47.439 27.149 47.439 25.3997C47.439 23.3943 47.5563 22.029 47.791 21.3037C47.983 20.7063 48.2923 20.1197 48.719 19.5437C49.1456 18.9463 49.583 18.509 50.031 18.2317Z" fill="#67728A"/>
<path d="M36.9319 23.8958C36.6119 23.7464 36.2493 23.6718 35.8439 23.6718C34.9479 23.6718 34.2439 23.9918 33.7319 24.6318C33.3479 25.1224 33.1559 25.6878 33.1559 26.3278C33.1559 26.8611 33.2946 27.3731 33.5719 27.8638C33.8493 28.3544 34.2333 28.7278 34.7239 28.9838C35.1293 29.1971 35.5239 29.3038 35.9079 29.3038C36.5906 29.3038 37.1453 29.0051 37.5719 28.4078C37.9986 27.8104 38.2119 27.0211 38.2119 26.0398C38.2119 24.9731 37.7853 24.2584 36.9319 23.8958ZM31.5879 17.6238C32.3559 17.3678 33.3479 17.2291 34.5639 17.2078H34.6599C37.1559 17.2078 39.2573 17.7944 40.9639 18.9678C42.6706 20.1411 43.8546 21.8051 44.5159 23.9598C44.7293 24.6851 44.8359 25.3891 44.8359 26.0718C44.8359 26.5198 44.8253 26.9038 44.8039 27.2238C44.7826 28.1624 44.7293 28.7918 44.6439 29.1118C44.5799 29.4318 44.4306 29.8478 44.1959 30.3598C43.4493 31.8318 42.3186 32.9518 40.8039 33.7198C39.1399 34.5304 37.1453 34.9358 34.8199 34.9358C33.9453 34.9358 33.1346 34.8504 32.3879 34.6798C30.8519 34.3384 29.5933 33.4638 28.6119 32.0558C27.6306 30.6691 27.0013 28.8771 26.7239 26.6798C26.6599 26.1251 26.6279 25.6024 26.6279 25.1118C26.6279 23.2558 27.0546 21.6771 27.9079 20.3758C28.7826 19.0744 30.0093 18.1571 31.5879 17.6238Z" fill="#67728A"/>
<path d="M16.928 10.6476C17.5253 10.4769 18.24 10.3916 19.072 10.3916H19.424C20.064 10.3916 20.6293 10.5196 21.12 10.7756C21.824 11.1383 22.336 11.7569 22.656 12.6316C22.976 13.4849 23.2853 15.0209 23.584 17.2396C23.8827 19.6289 24.032 21.9436 24.032 24.1836C24.032 27.2343 23.7973 29.4956 23.328 30.9676C23.0293 31.8849 22.4747 32.6103 21.664 33.1436C20.8747 33.6983 19.9467 33.9756 18.88 33.9756C18.1973 33.9756 17.7813 33.8049 17.632 33.4636C17.4827 33.1436 17.3333 32.1196 17.184 30.3916C16.992 28.1516 16.8533 27.0316 16.768 27.0316L16.736 27.0636C16.6933 27.1063 16.416 28.2369 15.904 30.4556C15.4347 32.5676 15.0933 33.7303 14.88 33.9436C14.688 34.0716 13.8667 34.1356 12.416 34.1356C11.0507 34.1356 10.2187 34.0396 9.92 33.8476C9.64267 33.6556 9.39733 33.0369 9.184 31.9916C9.07733 31.5009 8.91733 30.8289 8.704 29.9756C8.512 29.1223 8.32 28.3756 8.128 27.7356C7.95733 27.0743 7.86133 26.7436 7.84 26.7436C7.81867 26.7436 7.70133 27.3089 7.488 28.4396C7.25333 29.8049 7.02933 30.8823 6.816 31.6716C6.56 32.7383 6.26133 33.4209 5.92 33.7196L5.376 34.1996L3.552 34.1036C2.50667 34.0609 1.74933 33.9543 1.28 33.7836C0.810667 33.6343 0.490667 33.3783 0.32 33.0156C0.106667 32.5889 0 29.0156 0 22.2956C0 18.8823 0.0533333 16.6743 0.16 15.6716C0.501333 12.9196 1.408 11.3196 2.88 10.8716C3.52 10.6796 4.33067 10.5836 5.312 10.5836C6.08 10.5836 6.688 10.6476 7.136 10.7756C8.928 11.2876 10.4 13.1543 11.552 16.3756C11.9573 17.4423 12.1707 17.9756 12.192 17.9756C12.2773 17.9756 12.4693 17.5169 12.768 16.5996C13.984 13.1009 15.3707 11.1169 16.928 10.6476Z" fill="#67728A"/>
<path d="M207.444 9C207.617 9 207.787 9.01426 207.953 9.04102C208.822 9.16838 209.641 9.62882 210.201 10.3896L219.029 22.3828V12.9443C219.029 12.1291 219.315 11.3807 219.794 10.7949C219.963 10.5514 220.17 10.3361 220.416 10.1572C220.686 9.96063 220.984 9.8216 221.3 9.73633C221.653 9.61181 222.033 9.54396 222.429 9.54395C223.669 9.54395 224.753 10.2068 225.347 11.1973C225.498 11.3586 225.642 11.5318 225.777 11.7158L232.517 20.873C233.963 22.8376 233.907 25.3249 232.391 26.4287C230.876 27.5324 228.475 26.8347 227.029 24.8701L225.831 23.2412V32.6699C225.831 34.5482 224.308 36.0713 222.429 36.0713C222.245 36.0713 222.065 36.0546 221.888 36.0264C221.023 35.8968 220.208 35.4383 219.65 34.6807L210.687 22.5029V31.5088C210.687 33.9583 208.751 35.9443 206.363 35.9443C205.169 35.9442 204.201 34.9512 204.201 33.7266V21.9668C203.029 22.9828 201.267 23.0965 199.96 22.1445C198.444 21.0407 198.116 18.9235 199.225 17.416L204.397 10.3896C205.087 9.45268 206.17 8.97079 207.255 9.00586C207.317 9.00215 207.381 9.00001 207.444 9ZM237.215 29.4473C239.005 29.4475 240.458 30.8995 240.458 32.6904C240.458 34.4815 239.006 35.9333 237.215 35.9336C235.423 35.9336 233.97 34.4816 233.97 32.6904C233.971 30.8994 235.424 29.4473 237.215 29.4473Z" fill="#67728A"/>
</g>
<defs>
<clipPath id="clip0_5180_1522">
<rect width="240.458" height="45.0713" fill="white"/>
</clipPath>
</defs>
</svg>
