<svg width="48" height="48" viewBox="0 0 48 48" fill="none" xmlns="http://www.w3.org/2000/svg">
<rect width="48" height="48" rx="24" fill="#99A1B1"/>
<path d="M24 10.5C20.3488 10.5 17.3889 13.4357 17.3889 17.0571C17.3889 20.6786 20.3488 23.6143 24 23.6143C27.6512 23.6143 30.6111 20.6786 30.6111 17.0571C30.6111 13.4357 27.6512 10.5 24 10.5Z" fill="#363853"/>
<path d="M27.9014 26.5315C25.3168 26.1224 22.6832 26.1224 20.0986 26.5315L19.8215 26.5753C16.1797 27.1518 13.5 30.2675 13.5 33.9253C13.5 35.8995 15.1136 37.5 17.1042 37.5H30.8958C32.8864 37.5 34.5 35.8995 34.5 33.9253C34.5 30.2675 31.8203 27.1518 28.1785 26.5753L27.9014 26.5315Z" fill="#363853"/>
</svg>
