<svg width="32" height="32" viewBox="0 0 32 32" fill="none" xmlns="http://www.w3.org/2000/svg">
<rect width="32" height="32" rx="16" fill="#4DC4CC"/>
<path fill-rule="evenodd" clip-rule="evenodd" d="M19.6013 14.9719C19.6013 15.6587 19.4661 16.3387 19.2032 16.9732C18.9404 17.6076 18.5552 18.1841 18.0696 18.6697C17.584 19.1553 17.0075 19.5405 16.3731 19.8033C15.7386 20.0662 15.0586 20.2014 14.3718 20.2014C13.6851 20.2014 13.0051 20.0662 12.3706 19.8033C11.7361 19.5405 11.1597 19.1553 10.6741 18.6697C10.1884 18.1841 9.80325 17.6076 9.54044 16.9732C9.27764 16.3387 9.14237 15.6587 9.14237 14.9719C9.14237 13.585 9.69333 12.2549 10.6741 11.2741C11.6548 10.2934 12.9849 9.74247 14.3718 9.74247C15.7588 9.74247 17.0889 10.2934 18.0696 11.2741C19.0504 12.2549 19.6013 13.585 19.6013 14.9719ZM18.6484 20.4803C17.2473 21.568 15.4844 22.0809 13.7185 21.9145C11.9526 21.7482 10.3165 20.915 9.14324 19.5848C7.96999 18.2546 7.34779 16.5272 7.40332 14.7543C7.45885 12.9815 8.18793 11.2964 9.44214 10.0422C10.6963 8.78803 12.3814 8.05895 14.1542 8.00342C15.9271 7.94789 17.6545 8.57009 18.9847 9.74334C20.3149 10.9166 21.1481 12.5527 21.3144 14.3186C21.4808 16.0845 20.9679 17.8474 19.8802 19.2485L23.1225 22.4908C23.2081 22.5706 23.2768 22.6668 23.3245 22.7737C23.3721 22.8806 23.3977 22.996 23.3998 23.113C23.4018 23.2301 23.3803 23.3463 23.3365 23.4548C23.2926 23.5634 23.2274 23.662 23.1446 23.7447C23.0619 23.8275 22.9633 23.8927 22.8547 23.9366C22.7462 23.9804 22.63 24.0019 22.5129 23.9999C22.3959 23.9978 22.2805 23.9722 22.1736 23.9245C22.0667 23.8769 21.9705 23.8082 21.8907 23.7226L18.6484 20.4803Z" fill="#F7F7F7"/>
</svg>
